<svg xmlns="http://www.w3.org/2000/svg" version="1.1" xmlns:xlink="http://www.w3.org/1999/xlink" xmlns:svgjs="http://svgjs.dev/svgjs" width="100%" height="100%" viewBox="0 0 1000 600"><rect width="1000" height="600" x="0" y="0" fill="hsl(26, 100%, 55%)"/><g><rect width="333.3333333333333" height="333.3333333333333" y="238.1899538522959" fill="#317773" transform="matrix(0.5787902210452985,0,0,0.5787902210452986,0,65.67295561838961)" x="215.96775817871094"/><path d="M383.5987804295369 479.85662435657343Q369.0751105794226 479.85662435657343 357.59059900780306 474.7134334237362Q346.1353101119382 469.5702424908989 339.6186534186274 460.39432230390526Q333.10199672531655 451.2476247926662 332.86821531927853 439.2663277332158L332.86821531927853 439.2663277332158L353.29486567185376 439.2663277332158Q354.346881999025 449.58193227464506 361.79866431648804 456.6245971315415Q369.27966930970587 463.667261988438 383.5987804295369 463.667261988438L383.5987804295369 463.667261988438Q397.2749926827632 463.667261988438 405.1651151365476 456.8291558618248Q413.055237590332 449.9910497352117 413.055237590332 439.2663277332158L413.055237590332 439.2663277332158Q413.055237590332 430.8501971158458 408.4088321453257 425.5901154799895Q403.791649376074 420.3300338441332 396.8366525464418 417.58310232318604Q389.9108783925644 414.8653934779936 378.1049173876425 411.70934449647984L378.1049173876425 411.70934449647984Q363.610470213283 407.9103966483614 354.87289016261064 404.111448800243Q346.1353101119382 400.34172362787933 339.94010285192974 392.2470424438116Q333.71567291616645 384.12313858398915 333.71567291616645 370.44692633076284L333.71567291616645 370.44692633076284Q333.71567291616645 358.46562927131237 339.8232121489107 349.2020410570544Q345.93075138165494 339.9384528427964 356.97692281695316 334.91215261297816Q368.0230942522513 329.85662970740515 382.31298269632754 329.85662970740515L382.31298269632754 329.85662970740515Q402.94419177918604 329.85662970740515 416.0943958688268 340.17223424883446Q429.24459995846746 350.45861611450897 430.9395151522434 367.5246587552871L430.9395151522434 367.5246587552871L409.8991886088183 367.5246587552871Q408.84717228164703 359.10852813791706 401.04471785512686 352.67953947187044Q393.2714861043615 346.25055080582393 380.4427314480231 346.25055080582393L380.4427314480231 346.25055080582393Q368.43221171281795 346.25055080582393 360.86353869233585 352.47498074158716Q353.29486567185376 358.6701880015957 353.29486567185376 369.83325013991293L353.29486567185376 369.83325013991293Q353.29486567185376 377.8110406209616 357.8243804138411 382.8665635265346Q362.3246724800737 387.92208643210756 368.9582198764036 390.5521272500357Q375.5917672727334 393.18216806796386 387.57306433218383 396.5427757797609L387.57306433218383 396.5427757797609Q402.0967341822981 400.5462823581626 410.95120493598955 404.4328982335453Q419.7764530139262 408.31951410892805 426.08855097695374 416.4434179687505Q432.40064893998124 424.53809915281823 432.40064893998124 438.4188701363279L432.40064893998124 438.4188701363279Q432.40064893998124 449.1435921383237 426.7314498435584 458.61173908286503Q421.0330280713807 468.07988602740636 409.8991886088183 473.98286652986724Q398.73612647050106 479.85662435657343 383.5987804295369 479.85662435657343L383.5987804295369 479.85662435657343Z " fill="hsl(220, 13%, 13%)" transform="matrix(0.5787902210452985,0,0,0.5787902210452986,0,65.67295561838961)"/><path d="M677.498143681289 479.85662774191394Q664.8984775185802 479.85662774191394 654.885497786626 475.54548369065594Q644.8725180546721 471.23433963939794 639.059427043621 463.5299080123111Q633.2463360325698 455.82547638522425 632.6344317156172 445.81249665327016L632.6344317156172 445.81249665327016L651.4643963782084 445.81249665327016Q652.2709975232826 454.01757726695473 659.1688280052954 459.2187639610531Q666.0944723198968 464.4199506551514 677.3034468531677 464.4199506551514L677.3034468531677 464.4199506551514Q687.7058202413643 464.4199506551514 693.7136080805367 459.8306682780059Q699.7213959197093 455.2135720682715 699.7213959197093 448.20448625590365L699.7213959197093 448.20448625590365Q699.7213959197093 441.0007036154145 693.324214424294 437.4961607092306Q686.927032928879 433.99161780304667 673.4929517885073 430.59833022721784L673.4929517885073 430.59833022721784Q661.2826792820413 427.3719256469215 653.5782476549543 424.0898934014477Q645.8738160278674 420.78004732338513 640.3666771752928 414.271610497615Q634.859538322718 407.76317367184487 634.859538322718 397.1382896229381L634.859538322718 397.1382896229381Q634.859538322718 388.7385121811322 639.866028188695 381.7294263687644Q644.8725180546721 374.72034055639654 654.0788966415521 370.60389333325986Q663.285275228432 366.515259942712 675.1061540786554 366.515259942712L675.1061540786554 366.515259942712Q693.324214424294 366.515259942712 704.5331889575648 375.721638529592Q715.7421634908357 384.92801711647195 716.5487646359097 400.9487846875984L716.5487646359097 400.9487846875984L698.3307042902711 400.9487846875984Q697.7187999733184 392.3264965850824 691.4328738082584 387.12530989098406Q685.1191338106096 381.9241231968857 674.4942497617028 381.9241231968857L674.4942497617028 381.9241231968857Q664.67596685787 381.9241231968857 658.8906896794077 386.12401191778866Q653.0775986683566 390.3239006386916 653.0775986683566 397.1382896229381L653.0775986683566 397.1382896229381Q653.0775986683566 402.5619869777465 656.5821415745406 406.06652988393046Q660.0866844807244 409.57107279011433 665.3991265051778 411.65711023427144Q670.6837546970426 413.7709615110173 680.1126439446325 416.3576479417721L680.1126439446325 416.3576479417721Q691.9335227948561 419.5840525220684 699.3320022634666 422.6713879394209Q706.730481732077 425.78653718936215 712.0429237565304 431.9890218566559Q717.3553657809838 438.1915065239496 717.5500626091051 448.20448625590365L717.5500626091051 448.20448625590365Q717.5500626091051 457.2161680146623 712.5435727431282 464.4199506551514Q707.5370828771511 471.65154712822937 698.4419596206262 475.74018051877727Q689.3190225315125 479.85662774191394 677.498143681289 479.85662774191394L677.498143681289 479.85662774191394ZM796.6526024915421 366.2927492820019Q816.6785619554502 366.2927492820019 829.1113451226264 378.4195802907018Q841.5163144572138 390.5464112994017 841.5163144572138 413.35375402218585L841.5163144572138 413.35375402218585L841.5163144572138 478.0487286236445L823.4929509396965 478.0487286236445L823.4929509396965 415.96825428552944Q823.4929509396965 399.5580930581603 815.287870326012 390.8245496252893Q807.0827897123276 382.11882002500704 792.8421074268816 382.11882002500704L792.8421074268816 382.11882002500704Q778.4345421459035 382.11882002500704 769.9235093737424 391.1305017837657Q761.4124766015815 400.1421835425243 761.4124766015815 417.3589459149675L761.4124766015815 417.3589459149675L761.4124766015815 478.0487286236445L743.1944162559429 478.0487286236445L743.1944162559429 368.2953452283927L761.4124766015815 368.2953452283927L761.4124766015815 383.9267191432765Q766.8083601238012 375.5269417014706 776.1259940410363 370.9098454917363Q785.4436279582713 366.2927492820019 796.6526024915421 366.2927492820019L796.6526024915421 366.2927492820019ZM971.490354144495 418.9721482051157Q971.490354144495 424.17333489921396 970.8784498275423 429.9864259102651L970.8784498275423 429.9864259102651L883.181435675178 429.9864259102651Q884.1827336483735 446.20189030951286 894.2791548780939 455.32482739862655Q904.4033899404029 464.4199506551514 918.8109552213813 464.4199506551514L918.8109552213813 464.4199506551514Q930.6318340716049 464.4199506551514 938.5309625268129 458.9128118025767Q946.4579048146098 453.405672950002 949.6564955623174 444.199294363122L949.6564955623174 444.199294363122L969.2930613699829 444.199294363122Q964.8706619883698 460.0253651061272 951.6590915087082 469.9270895077262Q938.4475210290467 479.85662774191394 918.8109552213813 479.85662774191394L918.8109552213813 479.85662774191394Q903.2073951390863 479.85662774191394 890.885867302265 472.8475419295461Q878.5643394654438 465.8384561171783 871.555253653076 452.9050239634043Q864.5461678407081 439.99940564221913 864.5461678407081 422.97734009789724L864.5461678407081 422.97734009789724Q864.5461678407081 405.9552745535754 871.3605568249546 393.13309773015646Q878.1749458092012 380.3109209067376 890.4686598134336 373.41309042472477Q902.7901876502548 366.515259942712 918.8109552213813 366.515259942712L918.8109552213813 366.515259942712Q934.4423291362651 366.515259942712 946.4579048146098 373.3018350943697Q958.4734804929548 380.11622407861626 964.9819173187249 392.0483582591948Q971.490354144495 403.95267860718457 971.490354144495 418.9721482051157L971.490354144495 418.9721482051157ZM952.6603894819037 415.16165314045537Q952.6603894819037 404.75927975225864 948.0432932721693 397.24954495329314Q943.4540108950238 389.7398101543276 935.5270686072269 385.8180597593123Q927.6279401520186 381.9241231968857 918.0043540763071 381.9241231968857L918.0043540763071 381.9241231968857Q904.2086931122816 381.9241231968857 894.4738517062152 390.74110812752303Q884.7668241327375 399.5580930581603 883.3761325032993 415.16165314045537L883.3761325032993 415.16165314045537L952.6603894819037 415.16165314045537ZM988.7071165169383 422.7826432697759Q988.7071165169383 405.9552745535754 995.5215055011846 393.2443530605115Q1002.3358944854311 380.5334315674476 1014.240214833421 373.5243457550798Q1026.144535181411 366.515259942712 1040.774611123099 366.515259942712L1040.774611123099 366.515259942712Q1055.1821764040774 366.515259942712 1065.8070604529844 372.71774461000575Q1076.431944501891 378.9202292772995 1081.6331311959893 388.32130469230077L1081.6331311959893 388.32130469230077L1081.6331311959893 368.2953452283927L1100.0458883697493 368.2953452283927L1100.0458883697493 478.0487286236445L1081.6331311959893 478.0487286236445L1081.6331311959893 457.6333755034937Q1076.2094338411812 467.2291477466163 1065.501108294508 473.54288774426516Q1054.7927827478347 479.85662774191394 1040.5799142949777 479.85662774191394L1040.5799142949777 479.85662774191394Q1025.9498383532896 479.85662774191394 1014.1289595030659 472.65284510142476Q1002.3358944854311 465.42124862834686 995.5215055011846 452.4043749768066Q988.7071165169383 439.3875013252664 988.7071165169383 422.7826432697759L988.7071165169383 422.7826432697759ZM1081.6331311959893 422.97734009789724Q1081.6331311959893 410.5723707633098 1076.6266413300123 401.33817834384104Q1071.6201514640352 392.1317997569611 1063.1091186918743 387.2365652213391Q1054.5980859197134 382.31351685312836 1044.390409359638 382.31351685312836L1044.390409359638 382.31351685312836Q1034.154918966974 382.31351685312836 1025.7551415251683 387.12530989098406Q1017.3553640833621 391.93710292883975 1012.3488742173853 401.1434815157197Q1007.3423843514082 410.3498601025997 1007.3423843514082 422.7826432697759L1007.3423843514082 422.7826432697759Q1007.3423843514082 435.3823094324847 1012.3488742173853 444.6999433497198Q1017.3553640833621 454.01757726695473 1025.7551415251683 458.9128118025767Q1034.154918966974 463.83586017078744 1044.390409359638 463.83586017078744L1044.390409359638 463.83586017078744Q1054.5980859197134 463.83586017078744 1063.1091186918743 458.9128118025767Q1071.6201514640352 454.01757726695473 1076.6266413300123 444.6999433497198Q1081.6331311959893 435.3823094324847 1081.6331311959893 422.97734009789724L1081.6331311959893 422.97734009789724ZM1217.0030544054903 478.0487286236445L1192.1653019037262 478.0487286236445L1149.109489056324 429.59703225402245L1149.109489056324 478.0487286236445L1130.8914287106854 478.0487286236445L1130.8914287106854 329.8566285907247L1149.109489056324 329.8566285907247L1149.109489056324 416.96955225872483L1191.3587007586525 368.2953452283927L1216.808357577369 368.2953452283927L1165.1302566274503 422.97734009789724L1217.0030544054903 478.0487286236445ZM1334.1549172693526 418.9721482051157Q1334.1549172693526 424.17333489921396 1333.5430129523997 429.9864259102651L1333.5430129523997 429.9864259102651L1245.8459988000359 429.9864259102651Q1246.847296773231 446.20189030951286 1256.9437180029513 455.32482739862655Q1267.0679530652606 464.4199506551514 1281.475518346239 464.4199506551514L1281.475518346239 464.4199506551514Q1293.2963971964623 464.4199506551514 1301.2233394842592 458.9128118025767Q1309.1224679394672 453.405672950002 1312.321058687175 444.199294363122L1312.321058687175 444.199294363122L1331.9576244948403 444.199294363122Q1327.5352251132272 460.0253651061272 1314.3236546335656 469.9270895077262Q1301.112084153904 479.85662774191394 1281.475518346239 479.85662774191394L1281.475518346239 479.85662774191394Q1265.8719582639437 479.85662774191394 1253.5504304271226 472.8475419295461Q1241.2289025903015 465.8384561171783 1234.2198167779334 452.9050239634043Q1227.2107309655657 439.99940564221913 1227.2107309655657 422.97734009789724L1227.2107309655657 422.97734009789724Q1227.2107309655657 405.9552745535754 1234.025119949812 393.13309773015646Q1240.8395089340588 380.3109209067376 1253.16103677088 373.41309042472477Q1265.4547507751122 366.515259942712 1281.475518346239 366.515259942712L1281.475518346239 366.515259942712Q1297.1068922611225 366.515259942712 1309.1224679394672 373.3018350943697Q1321.1380436178124 380.11622407861626 1327.6464804435823 392.0483582591948Q1334.1549172693526 403.95267860718457 1334.1549172693526 418.9721482051157L1334.1549172693526 418.9721482051157ZM1315.3249526067611 415.16165314045537Q1315.3249526067611 404.75927975225864 1310.7356702296156 397.24954495329314Q1306.1185740198812 389.7398101543276 1298.2194455646732 385.8180597593123Q1290.2925032768762 381.9241231968857 1280.6967310337536 381.9241231968857L1280.6967310337536 381.9241231968857Q1266.8732562371392 381.9241231968857 1257.1662286636615 390.74110812752303Q1247.431387257595 399.5580930581603 1246.0406956281568 415.16165314045537L1246.0406956281568 415.16165314045537L1315.3249526067611 415.16165314045537ZM1376.4041289716806 386.12401191778866Q1381.2159220095364 376.7229365027874 1390.1163484379404 371.52174980868904Q1399.0445886989323 366.2927492820019 1411.8667655223512 366.2927492820019L1411.8667655223512 366.2927492820019L1411.8667655223512 385.1227139445933L1407.0549724844955 385.1227139445933Q1376.4041289716806 385.1227139445933 1376.4041289716806 418.36024388816287L1376.4041289716806 418.36024388816287L1376.4041289716806 478.0487286236445L1358.186068626042 478.0487286236445L1358.186068626042 368.2953452283927L1376.4041289716806 368.2953452283927L1376.4041289716806 386.12401191778866ZM1471.7221332533654 479.85662774191394Q1459.1224670906563 479.85662774191394 1449.1094873587026 475.54548369065594Q1439.0965076267485 471.23433963939794 1433.2834166156977 463.5299080123111Q1427.4703256046464 455.82547638522425 1426.8862351202824 445.81249665327016L1426.8862351202824 445.81249665327016L1445.688385950285 445.81249665327016Q1446.4949870953592 454.01757726695473 1453.4206314099606 459.2187639610531Q1460.3184618919731 464.4199506551514 1471.527436425244 464.4199506551514L1471.527436425244 464.4199506551514Q1481.9576236460293 464.4199506551514 1487.965411485202 459.8306682780059Q1493.9731993243745 455.2135720682715 1493.9731993243745 448.20448625590365L1493.9731993243745 448.20448625590365Q1493.9731993243745 441.0007036154145 1487.5482039963704 437.4961607092306Q1481.1510225009556 433.99161780304667 1467.7169413605839 430.59833022721784L1467.7169413605839 430.59833022721784Q1455.5066688541178 427.3719256469215 1447.8022372270307 424.0898934014477Q1440.097805599944 420.78004732338513 1434.5906667473691 414.271610497615Q1429.0835278947948 407.76317367184487 1429.0835278947948 397.1382896229381L1429.0835278947948 397.1382896229381Q1429.0835278947948 388.7385121811322 1434.0900177607714 381.7294263687644Q1439.0965076267485 374.72034055639654 1448.3028862136284 370.60389333325986Q1457.5092648005084 366.515259942712 1469.3301436507318 366.515259942712L1469.3301436507318 366.515259942712Q1487.5482039963704 366.515259942712 1498.7571785296414 375.721638529592Q1509.9939668955008 384.92801711647195 1510.772754207986 400.9487846875984L1510.772754207986 400.9487846875984L1492.5546938623474 400.9487846875984Q1491.9706033779835 392.3264965850824 1485.656863380335 387.12530989098406Q1479.343123382686 381.9241231968857 1468.7182393337794 381.9241231968857L1468.7182393337794 381.9241231968857Q1458.9277702625354 381.9241231968857 1453.1146792514842 386.12401191778866Q1447.301588240433 390.3239006386916 1447.301588240433 397.1382896229381L1447.301588240433 397.1382896229381Q1447.301588240433 402.5619869777465 1450.8061311466172 406.06652988393046Q1454.310674052801 409.57107279011433 1459.623116077254 411.65711023427144Q1464.935558101708 413.7709615110173 1474.3366335167088 416.3576479417721L1474.3366335167088 416.3576479417721Q1486.1575123669327 419.5840525220684 1493.555991835543 422.6713879394209Q1500.9822851367421 425.78653718936215 1506.2669133286067 431.9890218566559Q1511.5793553530602 438.1915065239496 1511.7740521811816 448.20448625590365L1511.7740521811816 448.20448625590365Q1511.7740521811816 457.2161680146623 1506.7675623152045 464.4199506551514Q1501.7610724492274 471.65154712822937 1492.6659491927026 475.74018051877727Q1483.5430121035888 479.85662774191394 1471.7221332533654 479.85662774191394L1471.7221332533654 479.85662774191394Z " fill="hsl(220, 13%, 13%)" transform="matrix(0.5787902210452985,0,0,0.5787902210452986,0,65.67295561838961)"/></g></svg>